<?xml version="1.0" standalone="no"?>
<!DOCTYPE svg PUBLIC "-//W3C//DTD SVG 20010904//EN"
 "http://www.w3.org/TR/2001/REC-SVG-20010904/DTD/svg10.dtd">
<svg version="1.0" xmlns="http://www.w3.org/2000/svg"
 width="700.000000pt" height="700.000000pt" viewBox="0 0 700.000000 700.000000"
 preserveAspectRatio="xMidYMid meet">
<metadata>
Created by potrace 1.11, written by Peter Selinger 2001-2013
</metadata>
<g transform="translate(0.000000,700.000000) scale(0.100000,-0.100000)"
fill="#000000" stroke="none">
<path d="M2367 6813 c-38 -30 -83 -108 -98 -170 -5 -21 -16 -84 -24 -140 -19
-124 -41 -175 -108 -254 -125 -147 -193 -265 -227 -396 -10 -38 -21 -68 -26
-67 -5 1 -24 31 -42 67 -44 87 -69 226 -66 373 1 100 4 132 20 242 15 100 -84
-41 -112 -158 -4 -19 -10 -42 -12 -50 -12 -43 -9 -290 5 -355 44 -211 150
-414 295 -567 24 -25 115 -121 204 -214 219 -231 294 -320 294 -351 0 -24 -41
-13 -102 28 -101 69 -283 151 -336 153 l-47 1 3 -57 c7 -157 108 -272 258
-293 l52 -7 -38 -81 c-73 -160 -267 -664 -320 -832 -30 -98 -51 -183 -74 -310
-35 -191 -39 -468 -10 -685 5 -39 18 -104 79 -390 23 -106 26 -122 35 -190 5
-36 11 -78 14 -95 26 -161 27 -671 1 -975 -1 -19 -6 -73 -9 -120 -4 -47 -9
-105 -12 -130 -8 -75 -13 -122 -20 -195 -4 -38 -8 -81 -9 -95 -2 -14 -3 -30
-4 -36 -1 -12 -65 -27 -186 -44 -44 -7 -161 -27 -260 -46 -99 -20 -191 -37
-205 -40 -14 -3 -88 -18 -165 -35 -77 -17 -148 -32 -158 -34 -10 -2 -26 -6
-35 -9 -9 -3 -28 -7 -42 -10 -14 -2 -81 -18 -150 -36 -69 -18 -136 -34 -150
-37 -13 -2 -27 -6 -29 -9 -2 -2 1322 -4 2944 -4 1622 0 2946 2 2944 4 -5 4
-253 74 -329 92 -8 2 -62 15 -120 29 -157 39 -316 73 -498 104 -90 16 -165 31
-167 33 -5 5 -11 57 -30 243 -15 151 -19 197 -30 315 -3 36 -8 88 -10 116 -3
28 -8 80 -10 115 -3 35 -7 84 -10 109 -2 25 -7 83 -10 130 -3 47 -8 110 -10
140 -2 30 -7 93 -10 140 -3 47 -8 105 -10 130 -2 25 -6 86 -10 135 -6 94 -11
163 -20 280 -3 39 -8 104 -11 145 -2 41 -6 86 -9 100 -2 14 -7 61 -11 105 -3
44 -8 82 -9 85 -2 3 -6 35 -10 70 -6 58 -37 223 -52 274 -7 24 120 -62 196
-134 29 -27 55 -50 56 -50 2 0 -5 26 -15 58 -74 239 -200 427 -370 556 -64 49
-209 126 -237 126 -10 0 -23 4 -28 9 -9 7 -51 19 -130 36 -16 4 -39 9 -50 11
-11 3 -87 7 -170 8 -159 4 -261 -11 -550 -79 -60 -15 -138 -33 -171 -41 -375
-88 -616 -81 -742 21 -60 49 -118 137 -162 250 -34 83 -35 221 -3 281 57 108
188 119 358 31 51 -27 71 -31 137 -32 82 0 110 12 151 67 19 25 19 26 -1 65
-12 22 -58 73 -103 114 -76 68 -128 125 -204 225 -16 21 -56 65 -87 98 -54 56
-56 60 -43 85 21 41 89 114 147 158 29 22 115 86 191 141 75 56 163 128 195
160 181 179 253 357 247 611 -4 132 -27 229 -78 326 -39 73 -155 195 -186 195
-19 0 -16 -7 30 -75 51 -75 91 -172 104 -250 10 -63 14 -218 6 -255 -7 -34 -8
-34 -16 -10 -27 85 -175 226 -228 218 -18 -3 -13 -12 37 -73 31 -38 69 -95 84
-125 24 -48 27 -67 27 -150 0 -88 -2 -100 -35 -164 -52 -106 -171 -221 -337
-328 l-41 -27 1 132 c1 176 -14 260 -64 357 -36 70 -65 104 -83 97 -16 -6 -14
-42 5 -126 21 -90 24 -117 23 -231 -1 -123 -16 -193 -62 -285 -54 -110 -192
-265 -217 -245 -29 24 -52 138 -70 347 -3 40 -8 82 -10 95 -3 13 -8 39 -11 58
-4 19 -21 67 -39 105 -39 87 -110 159 -203 208 -109 57 -156 57 -91 0 138
-121 190 -209 197 -333 2 -43 1 -99 -2 -124 l-7 -46 -58 44 c-121 93 -228 223
-293 355 -61 125 -60 224 4 391 12 30 27 62 35 71 7 8 13 19 13 24 0 12 85
126 132 176 137 146 350 277 590 364 59 21 104 43 101 48 -5 9 -109 4 -168 -8
-103 -20 -225 -65 -347 -126 l-78 -39 -7 27 c-12 51 -6 157 12 213 17 54 58
135 76 155 5 5 9 13 9 17 0 16 -28 7 -63 -19z m-83 -4331 c66 -69 192 -168
274 -215 71 -40 92 -74 158 -257 66 -182 145 -476 214 -800 39 -183 109 -531
116 -579 3 -20 7 -44 10 -53 4 -14 -1 -18 -23 -19 -103 -4 -358 -20 -373 -24
-8 -2 -49 -6 -91 -10 -42 -3 -87 -7 -100 -10 -13 -2 -51 -6 -84 -10 -74 -8
-107 -12 -168 -20 -46 -6 -48 -6 -43 17 7 27 53 261 59 298 3 14 30 149 61
300 30 151 57 286 60 300 2 14 11 59 20 100 8 41 17 86 20 100 4 23 19 99 21
110 2 8 16 74 19 90 2 8 6 33 11 55 4 22 9 47 10 55 2 8 10 49 18 90 28 135
28 129 0 153 -135 113 -253 278 -312 437 l-21 55 43 -50 c23 -27 69 -78 101
-113z m1846 -57 c19 -4 62 -16 95 -27 313 -107 517 -366 659 -839 33 -109 73
-264 82 -319 3 -14 11 -56 19 -95 8 -38 16 -83 19 -100 3 -16 12 -68 20 -115
8 -47 17 -105 21 -130 5 -38 14 -92 40 -251 3 -14 7 -42 9 -63 5 -37 5 -37
-27 -32 -18 2 -54 8 -82 12 -27 3 -57 8 -65 9 -47 8 -103 15 -165 20 -38 3
-77 8 -85 10 -8 2 -51 7 -95 11 -44 3 -96 8 -115 10 -19 2 -80 6 -135 10 -55
3 -111 8 -125 9 -14 2 -35 4 -48 4 -25 1 -24 -1 -7 171 2 25 7 79 10 120 4 41
8 95 10 120 2 25 7 79 10 120 3 41 8 95 10 120 2 25 7 79 10 120 3 41 8 91 10
110 2 19 7 76 10 125 4 50 8 106 10 125 2 19 7 73 10 120 4 47 8 101 10 120 8
85 18 218 19 255 1 37 -1 41 -46 62 -25 12 -77 28 -115 36 -60 12 -88 14 -191
8 l-23 -1 6 -858 5 -858 -320 0 -320 0 -1 31 c-1 16 -2 50 -4 75 -4 80 -16
332 -21 440 -2 58 -6 139 -8 180 -5 73 -14 266 -21 425 -1 44 -6 150 -10 235
-4 85 -8 188 -9 228 l-1 74 60 24 c33 13 69 28 80 33 18 9 72 26 230 74 46 14
176 40 250 50 42 6 283 0 325 -8z"/>
</g>
</svg>
